<svg xmlns="http://www.w3.org/2000/svg" version="1.1" xmlns:xlink="http://www.w3.org/1999/xlink" xmlns:svgjs="http://svgjs.com/svgjs" width="512" height="512" x="0" y="0" viewBox="0 0 682.667 682.667" style="enable-background:new 0 0 512 512" xml:space="preserve" class=""><g><defs><clipPath id="a" clipPathUnits="userSpaceOnUse"><path d="M0 512h512V0H0Z" fill="#daba4e" data-original="#000000"></path></clipPath></defs><g clip-path="url(#a)" transform="matrix(1.33333 0 0 -1.33333 0 682.667)"><path d="M0 0h-124.578a6.488 6.488 0 0 0-6.488 6.489v39.055a6.488 6.488 0 0 0 6.488 6.489H0a6.49 6.49 0 0 0 6.489-6.489V6.489A6.49 6.49 0 0 0 0 0Z" style="stroke-width:15;stroke-linecap:round;stroke-linejoin:round;stroke-miterlimit:10;stroke-dasharray:none;stroke-opacity:1" transform="translate(242.512 331.959)" fill="none" stroke="#daba4e" stroke-width="15" stroke-linecap="round" stroke-linejoin="round" stroke-miterlimit="10" stroke-dasharray="none" stroke-opacity="" data-original="#000000"></path><path d="M229.688 294.579h-98.929v37.38h98.929z" style="stroke-width:15;stroke-linecap:round;stroke-linejoin:round;stroke-miterlimit:10;stroke-dasharray:none;stroke-opacity:1" fill="none" stroke="#daba4e" stroke-width="15" stroke-linecap="round" stroke-linejoin="round" stroke-miterlimit="10" stroke-dasharray="none" stroke-opacity="" data-original="#000000"></path><path d="M0 0v61.288a33.42 33.42 0 0 1-7.123 20.624l-27.793 35.442h-99.201l-11.454-14.606" style="stroke-width:15;stroke-linecap:round;stroke-linejoin:round;stroke-miterlimit:10;stroke-dasharray:none;stroke-opacity:1" transform="translate(264.74 177.225)" fill="none" stroke="#daba4e" stroke-width="15" stroke-linecap="round" stroke-linejoin="round" stroke-miterlimit="10" stroke-dasharray="none" stroke-opacity="" data-original="#000000"></path><path d="M0 0a33.423 33.423 0 0 1-2.808-13.41v-207.435c0-12.958 10.504-23.463 23.462-23.463h122.108c12.958 0 23.463 10.505 23.463 23.463v17.447" style="stroke-width:15;stroke-linecap:round;stroke-linejoin:round;stroke-miterlimit:10;stroke-dasharray:none;stroke-opacity:1" transform="translate(98.515 251.922)" fill="none" stroke="#daba4e" stroke-width="15" stroke-linecap="round" stroke-linejoin="round" stroke-miterlimit="10" stroke-dasharray="none" stroke-opacity="" data-original="#000000"></path><path d="M0 0h-54.596v93.094c0 15.076 12.221 27.298 27.298 27.298v0C-12.222 120.392 0 108.17 0 93.094Z" style="stroke-width:15;stroke-linecap:round;stroke-linejoin:round;stroke-miterlimit:10;stroke-dasharray:none;stroke-opacity:1" transform="translate(207.522 383.992)" fill="none" stroke="#daba4e" stroke-width="15" stroke-linecap="round" stroke-linejoin="round" stroke-miterlimit="10" stroke-dasharray="none" stroke-opacity="" data-original="#000000"></path><path d="M0 0h-79.49v107.877H0c5.509 0 9.974-4.465 9.974-9.974V9.974C9.974 4.466 5.509 0 0 0Z" style="stroke-width:15;stroke-linecap:round;stroke-linejoin:round;stroke-miterlimit:10;stroke-dasharray:none;stroke-opacity:1" transform="translate(175.197 97.158)" fill="none" stroke="#daba4e" stroke-width="15" stroke-linecap="round" stroke-linejoin="round" stroke-miterlimit="10" stroke-dasharray="none" stroke-opacity="" data-original="#000000"></path><path d="M0 0c5.454 7.19 13.935 20.918 15.048 37.899.834 12.711-6.837 31.519-19.266 38.527-9.341 5.266-20.311 2.01-27.266-5.189-8.548-8.846-12.965-21-12.177-33.263C-42.568 20.972-34.083 7.222-28.62.017" style="stroke-width:15;stroke-linecap:round;stroke-linejoin:round;stroke-miterlimit:10;stroke-dasharray:none;stroke-opacity:1" transform="translate(336.582 139.112)" fill="none" stroke="#daba4e" stroke-width="15" stroke-linecap="round" stroke-linejoin="round" stroke-miterlimit="10" stroke-dasharray="none" stroke-opacity="" data-original="#000000"></path><path d="M0 0c-5.454-7.19-13.935-20.919-15.048-37.899-.834-12.711 6.837-31.519 19.266-38.527 9.341-5.266 20.311-2.01 27.266 5.189 8.548 8.846 12.965 21 12.177 33.263C42.567-20.969 34.08-7.217 28.617-.013" style="stroke-width:15;stroke-linecap:round;stroke-linejoin:round;stroke-miterlimit:10;stroke-dasharray:none;stroke-opacity:1" transform="translate(307.941 86.636)" fill="none" stroke="#daba4e" stroke-width="15" stroke-linecap="round" stroke-linejoin="round" stroke-miterlimit="10" stroke-dasharray="none" stroke-opacity="" data-original="#000000"></path><path d="M0 0c-3.499 8.317-11.148 22.53-25.3 31.986-10.591 7.077-30.715 9.839-42.998 2.578-9.231-5.456-11.896-16.585-9.14-26.207 3.388-11.826 11.706-21.728 22.72-27.177 15.278-7.558 31.438-7.081 40.406-5.951" style="stroke-width:15;stroke-linecap:round;stroke-linejoin:round;stroke-miterlimit:10;stroke-dasharray:none;stroke-opacity:1" transform="translate(306.701 138.39)" fill="none" stroke="#daba4e" stroke-width="15" stroke-linecap="round" stroke-linejoin="round" stroke-miterlimit="10" stroke-dasharray="none" stroke-opacity="" data-original="#000000"></path><path d="M0 0c3.487-8.309 11.14-22.566 25.325-32.046 10.591-7.077 30.715-9.839 42.998-2.578 9.231 5.457 11.896 16.585 9.14 26.207C74.075 3.41 65.758 13.312 54.744 18.76c-14.668 7.257-30.147 7.107-39.297 6.084" style="stroke-width:15;stroke-linecap:round;stroke-linejoin:round;stroke-miterlimit:10;stroke-dasharray:none;stroke-opacity:1" transform="translate(337.797 87.418)" fill="none" stroke="#daba4e" stroke-width="15" stroke-linecap="round" stroke-linejoin="round" stroke-miterlimit="10" stroke-dasharray="none" stroke-opacity="" data-original="#000000"></path><path d="M0 0c-8.955 1.128-25.081 1.606-40.341-5.918-11.424-5.634-23.878-21.681-23.732-35.948.11-10.723 8.416-18.596 18.127-21.02 11.936-2.979 24.67-.727 34.895 6.087 14.181 9.45 21.847 23.677 25.355 32.01" style="stroke-width:15;stroke-linecap:round;stroke-linejoin:round;stroke-miterlimit:10;stroke-dasharray:none;stroke-opacity:1" transform="translate(292.373 112.158)" fill="none" stroke="#daba4e" stroke-width="15" stroke-linecap="round" stroke-linejoin="round" stroke-miterlimit="10" stroke-dasharray="none" stroke-opacity="" data-original="#000000"></path><path d="M0 0c8.972-1.12 25.043-1.57 40.253 5.93 11.424 5.633 23.878 21.68 23.732 35.947-.103 9.975-7.296 17.483-16.115 20.434" style="stroke-width:15;stroke-linecap:round;stroke-linejoin:round;stroke-miterlimit:10;stroke-dasharray:none;stroke-opacity:1" transform="translate(352.238 113.58)" fill="none" stroke="#daba4e" stroke-width="15" stroke-linecap="round" stroke-linejoin="round" stroke-miterlimit="10" stroke-dasharray="none" stroke-opacity="" data-original="#000000"></path><path d="M0 0a43.614 43.614 0 0 1-2.93-1.791c-13.774-9.178-21.401-22.863-25.042-31.276" style="stroke-width:15;stroke-linecap:round;stroke-linejoin:round;stroke-miterlimit:10;stroke-dasharray:none;stroke-opacity:1" transform="translate(366.13 172.18)" fill="none" stroke="#daba4e" stroke-width="15" stroke-linecap="round" stroke-linejoin="round" stroke-miterlimit="10" stroke-dasharray="none" stroke-opacity="" data-original="#000000"></path><path d="M0 0c0-16.506-13.381-29.888-29.888-29.888S-59.776-16.506-59.776 0c0 16.507 13.381 29.888 29.888 29.888S0 16.507 0 0Z" style="stroke-width:15;stroke-linecap:round;stroke-linejoin:round;stroke-miterlimit:10;stroke-dasharray:none;stroke-opacity:1" transform="translate(352.15 112.874)" fill="none" stroke="#daba4e" stroke-width="15" stroke-linecap="round" stroke-linejoin="round" stroke-miterlimit="10" stroke-dasharray="none" stroke-opacity="" data-original="#000000"></path></g></g></svg>