<svg xmlns="http://www.w3.org/2000/svg" version="1.1" xmlns:xlink="http://www.w3.org/1999/xlink" xmlns:svgjs="http://svgjs.com/svgjs" width="512" height="512" x="0" y="0" viewBox="0 0 256 256" style="enable-background:new 0 0 512 512" xml:space="preserve" class=""><g><path d="M232.483 50.923c-3.513-3.512-8.2-5.408-13.148-5.31a17.993 17.993 0 0 0-12.953 5.769l-51.065 54.787H48.37c-5.003.002-8.804 1.697-11.296 5.036-2.743 3.676-3.67 9.263-2.804 16.657 1.246 10.708 5.333 20.625 6.92 24.25-8.384 1.707-11.795 8.245-12.096 13.254-.4 6.665 3.374 13.225 7.74 17.497-5.161.157-11.28 1.834-15.656 5.665-3.256 2.85-5.005 6.508-5.057 10.58-.07 5.384 2.107 9.691 6.294 12.457 3.347 2.21 7.413 3.097 11.402 3.097 2.656 0 5.272-.4 7.624-1.059-2.448 4.55-4.054 10.69-2.925 16.398.84 4.244 3.134 7.588 6.634 9.67 2.556 1.52 5.17 2.282 7.755 2.282 2.095 0 4.171-.501 6.18-1.505 5.975-2.987 9.764-9.538 11.279-15.457 2.715 4.394 7.23 8.855 12.738 10.73 1.678.572 3.346.857 4.977.857 2.348 0 4.617-.592 6.714-1.766 4.698-2.632 7.34-6.67 7.641-11.68.007-.112.008-.225.012-.337h53.905c4.444 0 8.308-1.742 10.88-4.907 2.572-3.165 3.488-7.303 2.58-11.653l-2.316-11.09c20.188-11.241 35.642-30.899 42.567-54.25 5.321-17.227 2.754-26.014.01-29.69-2.168-2.906-5.33-4.565-9.412-4.948l31.364-29.233a17.992 17.992 0 0 0 5.77-12.953 17.992 17.992 0 0 0-5.311-13.148zm-197.9 114.773c.187-3.09 1.814-5.517 4.84-7.212a8.137 8.137 0 0 1 4.032-1.063c1.03 0 2.099.187 3.198.561 4.974 1.694 9.347 6.725 11.096 10.82 2.121 4.964 3.58 13.24 3.864 18.81l-1.383 1.1c-5.365-1.53-13.1-4.813-17.46-7.995-4.964-3.625-8.483-10.082-8.186-15.021zm-9.137 41.279c-2.583-1.706-3.87-4.329-3.826-7.796.033-2.503 1.103-4.694 3.18-6.513 3.38-2.958 8.651-4.316 12.872-4.316.718 0 1.405.04 2.048.116 5.358.646 13.254 3.52 18.22 6.059l.262 1.748c-4.007 3.88-10.718 8.94-15.654 11.123-5.62 2.487-12.973 2.305-17.102-.421zm40.096 13.953c-.657 6.11-4.49 12.388-8.916 14.6-2.769 1.385-5.684 1.188-8.665-.585-2.15-1.28-3.513-3.301-4.05-6.01-1.02-5.155 1.151-11.458 3.823-15.02 3.238-4.318 9.675-9.72 14.357-12.75l1.645.647c1.357 5.41 2.382 13.752 1.806 19.118zm.611-24.077-2.448-.965-.389-2.601 2.058-1.638 2.449.964.389 2.602zm1.64-10.163c-1.358-5.41-2.384-13.752-1.807-19.118.657-6.111 4.49-12.388 8.916-14.6 2.769-1.385 5.684-1.188 8.664.584 2.152 1.28 3.514 3.302 4.05 6.011 1.02 5.154-1.15 11.457-3.822 15.02-3.238 4.318-9.675 9.719-14.357 12.75zm21.187-5.586c5.62-2.487 12.972-2.306 17.102.42 2.583 1.707 3.87 4.33 3.826 7.797-.033 2.502-1.103 4.694-3.181 6.512-3.954 3.461-10.496 4.733-14.919 4.2-5.358-.645-13.255-3.519-18.22-6.058l-.262-1.748c4.007-3.881 10.718-8.94 15.654-11.123zm7.964 41.7c-.186 3.09-1.814 5.517-4.839 7.211-2.183 1.224-4.616 1.393-7.23.502-4.974-1.693-9.348-6.725-11.097-10.82-2.12-4.963-3.58-13.239-3.863-18.808l1.383-1.101c5.364 1.53 13.1 4.812 17.46 7.995 4.963 3.624 8.483 10.082 8.186 15.021zm66.019-8.383c-1.508 1.855-3.856 2.876-6.612 2.876h-54.568c-1.237-4.513-4.016-8.653-7.09-11.66 5.163-.155 11.28-1.834 15.656-5.665a15.563 15.563 0 0 0 3.013-3.519h48.787l2.278 10.908c.563 2.698.043 5.205-1.464 7.06zm.725-23.468H115.3c.064-.513.1-1.033.107-1.56.07-5.385-2.107-9.693-6.295-12.458-5.574-3.681-13.14-3.686-19.025-2.039 2.448-4.549 4.054-10.69 2.924-16.397-.84-4.245-3.134-7.588-6.633-9.67-4.628-2.753-9.447-3.021-13.936-.777-5.975 2.987-9.763 9.538-11.278 15.457-2.716-4.394-8.071-9.965-13.768-11.042a90.548 90.548 0 0 1-4.319-10.829H204.07c-6.967 21.393-21.562 39.242-40.382 49.315zm41.994-54.815H41.465a76.52 76.52 0 0 1-1.237-5.5h166.691a76.598 76.598 0 0 1-1.237 5.5zm-.017-21.642c1.299 1.74 2.388 4.907 1.986 10.642H39.495c-.402-5.735.687-8.9 1.987-10.642 1.417-1.9 3.67-2.823 6.889-2.825h150.402c3.22.002 5.473.926 6.89 2.825zM228.274 73l-35.587 33.17h-29.85l47.569-51.038a12.538 12.538 0 0 1 9.255-4.023c3.375 0 6.54 1.31 8.932 3.703a12.538 12.538 0 0 1 3.702 9.162A12.538 12.538 0 0 1 228.274 73z" fill="#daba4e" data-original="#000000" class=""></path><path d="M127.513 80.336c10.225 0 13.868 9.15 13.868 17.714a2.75 2.75 0 0 0 5.5 0c0-8.563 3.643-17.714 13.868-17.714a2.75 2.75 0 0 0 0-5.5c-10.225 0-13.868-9.15-13.868-17.714a2.75 2.75 0 0 0-5.5 0c0 8.563-3.643 17.714-13.868 17.714a2.75 2.75 0 0 0 0 5.5zm16.618-10.392c1.622 3.255 3.91 5.856 6.73 7.642-2.82 1.786-5.108 4.387-6.73 7.642-1.621-3.255-3.91-5.856-6.73-7.642 2.82-1.786 5.109-4.387 6.73-7.642zM66.945 49.162c12.073 0 16.357 11.194 16.357 20.78a2.75 2.75 0 0 0 5.5 0c0-9.586 4.284-20.78 16.356-20.78a2.75 2.75 0 0 0 0-5.5c-12.072 0-16.356-11.194-16.356-20.78a2.75 2.75 0 0 0-5.5 0c0 9.586-4.284 20.78-16.357 20.78a2.75 2.75 0 0 0 0 5.5zm19.107-12.505c1.95 4.264 4.872 7.604 8.544 9.755-3.672 2.151-6.594 5.49-8.544 9.755-1.95-4.264-4.872-7.604-8.544-9.755 3.672-2.15 6.594-5.49 8.544-9.755zM66.806 99.396c5.8 0 10.52-4.719 10.52-10.52 0-5.8-4.72-10.519-10.52-10.519s-10.52 4.72-10.52 10.52 4.72 10.52 10.52 10.52zm0-15.539a5.025 5.025 0 0 1 5.02 5.02c0 2.768-2.252 5.02-5.02 5.02s-5.02-2.252-5.02-5.02a5.025 5.025 0 0 1 5.02-5.02zM164.116 57.683c4.447 0 8.065-3.618 8.065-8.065s-3.618-8.064-8.065-8.064-8.065 3.617-8.065 8.064 3.618 8.065 8.065 8.065zm0-10.63c1.414 0 2.565 1.151 2.565 2.565s-1.151 2.565-2.565 2.565-2.565-1.15-2.565-2.565 1.15-2.564 2.565-2.564zM112.173 42.063c4.274 0 7.752-3.477 7.752-7.752s-3.478-7.752-7.752-7.752-7.752 3.478-7.752 7.752 3.477 7.752 7.752 7.752zm0-10.004c1.241 0 2.252 1.01 2.252 2.252s-1.01 2.252-2.252 2.252-2.252-1.01-2.252-2.252 1.01-2.252 2.252-2.252zM111.235 75.63a6.822 6.822 0 0 0-6.814 6.815c0 3.757 3.056 6.814 6.814 6.814s6.814-3.057 6.814-6.814a6.822 6.822 0 0 0-6.814-6.815zm0 8.129c-.725 0-1.314-.59-1.314-1.314s.589-1.315 1.314-1.315a1.316 1.316 0 0 1 0 2.629z" fill="#daba4e" data-original="#000000" class=""></path></g></svg>