<svg xmlns="http://www.w3.org/2000/svg" version="1.1" xmlns:xlink="http://www.w3.org/1999/xlink" xmlns:svgjs="http://svgjs.com/svgjs" width="512" height="512" x="0" y="0" viewBox="0 0 256 256" style="enable-background:new 0 0 512 512" xml:space="preserve" class=""><g><path d="M229.083 153.33h-35.498V52.28c0-16.68-13.57-30.25-30.25-30.25H52.432c-16.68 0-30.25 13.57-30.25 30.25v158.023c-2.64.997-4.502 2.419-4.502 4.707v24.293a2.75 2.75 0 0 0 2.75 2.75h174.906a2.75 2.75 0 0 0 2.75-2.75v-24.293c0-2.288-1.861-3.71-4.501-4.707v-36.91h35.498c5.532 0 10.032-4.5 10.032-10.033s-4.5-10.032-10.032-10.032zM163.335 27.53c13.647 0 24.75 11.103 24.75 24.75V153.33h-15.097l-8.014-27.09c-3.088-10.438-12.848-17.729-23.733-17.729h-14.973v-2.382a26.476 26.476 0 0 0 2.655-1.754c2.183-1.65 4-3.58 5.454-5.748h11.445c9.098 0 16.5-7.402 16.5-16.5v-29.19c0-9.099-7.402-16.5-16.5-16.5h-14.124c-.33-2.586-1.556-6.012-5.27-8.905zm-1.628 162.775-5.911-16.612 1.443-.3h15.95l3.623 12.248v21.572c-2.617-.284-5.48-.55-8.588-.797a437.301 437.301 0 0 0-6.357-.456v-14.733c0-.314-.054-.626-.16-.922zM99.834 175.6H89.302a3.645 3.645 0 0 1-3.64-3.64 3.645 3.645 0 0 1 3.64-3.642h14.812a2.75 2.75 0 1 0 0-5.5c-1.005 0-1.94-.4-2.635-1.128a3.617 3.617 0 0 1-1.001-2.692c.09-1.91 1.802-3.462 3.817-3.462a2.75 2.75 0 1 0 0-5.5H84.11c-5.532 0-10.033-4.5-10.033-10.032s4.5-10.032 10.032-10.032h23.122c2.015 0 3.728 1.553 3.817 3.461a3.617 3.617 0 0 1-1.002 2.692 3.61 3.61 0 0 1-2.635 1.129 2.75 2.75 0 1 0 0 5.5h25.151c2.015 0 3.728 1.553 3.817 3.462a3.612 3.612 0 0 1-.905 2.58l-12.275-2.558a2.75 2.75 0 0 0-3.311 2.692v24.847a9.967 9.967 0 0 1-5.75 1.823 2.75 2.75 0 1 0 0 5.5h10.905a3.645 3.645 0 0 1 3.64 3.64 3.645 3.645 0 0 1-3.64 3.642h-25.21a3.645 3.645 0 0 1-3.641-3.641 3.645 3.645 0 0 1 3.641-3.64 2.75 2.75 0 1 0 0-5.5zm25.555-1.188v-22.1l28.817 6.004v10.093zm20.613 1.324 4.36-.909 6.005 16.877v13.932c-3.812-.208-7.82-.39-11.996-.544l-2.078-7.503zm-4.854-25.758a9.11 9.11 0 0 0 .726-4.021c-.23-4.88-4.319-8.703-9.31-8.703h-16.76a9.12 9.12 0 0 0 .74-4.08c-.23-4.88-4.32-8.702-9.312-8.702H84.11c-8.564 0-15.532 6.968-15.532 15.532s6.968 15.532 15.532 15.532h11.625a8.966 8.966 0 0 0-.751 3.203 9.12 9.12 0 0 0 .74 4.08h-6.422c-5.04 0-9.14 4.1-9.14 9.14s4.1 9.141 9.14 9.141h2.148a9.087 9.087 0 0 0-.757 3.64c0 5.041 4.1 9.142 9.141 9.142h25.21c5.04 0 9.141-4.1 9.141-9.141a9.1 9.1 0 0 0-2.31-6.062l8.344-1.739-3.451 20.333c-.068.398-.047.805.061 1.194l1.782 6.432c-9.64-.29-20.014-.441-30.728-.441s-21.088.151-30.727.441l1.782-6.432c.108-.389.128-.796.061-1.194l-7.09-41.769a2.75 2.75 0 0 0-2.472-2.28 2.758 2.758 0 0 0-2.83 1.819L54.06 190.306c-.106.296-.16.608-.16.922v14.733a437.35 437.35 0 0 0-6.358.456c-3.108.246-5.97.513-8.587.797v-21.572l17.112-57.843c2.402-8.119 9.993-13.789 18.459-13.789h17.723a2.75 2.75 0 0 0 2.75-2.75v-2.63c3.905 1.34 8.28 2.047 12.884 2.047s8.98-.707 12.885-2.048v2.631a2.75 2.75 0 0 0 2.75 2.75h17.723c8.466 0 16.057 5.67 18.46 13.79l7.552 25.53h-10.014zm-67.674 47.611-2.079 7.503c-4.175.154-8.183.336-11.995.544v-13.932l8.852-24.878zm-.164-138.87c-2.115 4.112-3.283 9.644-3.688 14.802 0 7.47 2.99 13.792 8.661 18.372.119.416.245.828.384 1.234h-8.722c-6.065 0-11-4.935-11-11v-29.19c0-6.066 4.935-11 11-11h7.953c-3.218 4.15-5.333 9.244-4.588 16.783zm2.431 10.005c3.25 8.001 9.648 16.771 18.532 22.3.166.103.34.205.51.307-3.997-.506-8.154-1.591-12.459-3.258-4.623-3.47-8.892-10.47-6.583-19.349zm30.196-5.69c4.146 1.945 9.583 3.635 15.96 3.635 4.963 0 10.498-1.03 16.433-3.756 1.245 3.076 2.04 6.878 2.224 9.63.02.3.068.848.09 1.097-.032 6.016-2.454 10.87-7.202 14.433-13.704 5.308-25.902 4.73-36.263-1.72-11.666-7.259-17.73-20.28-18.321-27.23-1.327-9.865 3.527-14.479 6.295-16.538 3.01 7.05 10.77 15.75 20.784 20.449zM91.866 43.534c3.163.78 7.79 1.406 14.677 1.653l.098.002h2.485c.032 0 .065 0 .098-.002 12.298-.44 17.39-2.09 19.808-3.668 3.636 2.223 6.07 5.128 7.237 8.655.75 2.268 1.017 4.956.752 7.272-12.098 5.94-22.276 3.644-28.748.608-7.498-3.518-13.282-9.492-16.407-14.52zm46.003-1.599h7.953c6.065 0 11 4.935 11 11v29.19c0 6.066-4.935 11-11 11H137.1c.139-.405.265-.817.384-1.233 14.245-10.677 7.072-29.14 4.93-33.259.92-6.178-.879-11.673-4.545-16.698zM99.842 97.12c2.881 0 5.561-.281 8.041-.76 2.48.479 5.16.76 8.042.76 4.315 0 9.082-.63 14.292-2.15-4.487 7.352-13.623 10.207-22.334 10.207S90.037 102.323 85.55 94.97c5.21 1.52 9.976 2.149 14.292 2.149zm6.922-69.589h2.239c10.18.92 16.315 4.261 17.19 9.265-.813.623-4.254 2.427-17.117 2.893h-2.386c-12.863-.466-16.303-2.27-17.117-2.893.875-5.004 7.011-8.345 17.19-9.265zm-79.082 24.75c0-13.647 11.103-24.75 24.75-24.75h36.907c-3.714 2.893-4.94 6.319-5.27 8.904H69.945c-9.098 0-16.5 7.402-16.5 16.5v29.19c0 9.099 7.402 16.5 16.5 16.5H81.39a23.83 23.83 0 0 0 5.453 5.75 26.476 26.476 0 0 0 2.656 1.753v2.382H74.526c-10.886 0-20.645 7.29-23.733 17.73l-17.225 58.224a2.747 2.747 0 0 0-.113.78v22.646c-2.17.302-4.095.622-5.773.957zm164.904 184.273H23.18v-20.71c1.355-.712 6.89-2.681 28.014-4.186 15.392-1.097 35.525-1.7 56.69-1.7s41.296.603 56.689 1.7c21.124 1.505 26.658 3.474 28.013 4.185v20.711zm-10.387-52.09-3.275-11.07h9.16v35.453a101.393 101.393 0 0 0-5.772-.957v-22.646c0-.265-.038-.527-.113-.78zm46.884-16.57h-69.377v-9.065h69.377c2.499 0 4.532 2.033 4.532 4.532s-2.033 4.532-4.532 4.532z" fill="#daba4e" data-original="#000000"></path></g></svg>