<svg xmlns="http://www.w3.org/2000/svg" version="1.1" xmlns:xlink="http://www.w3.org/1999/xlink" xmlns:svgjs="http://svgjs.com/svgjs" width="512" height="512" x="0" y="0" viewBox="0 0 480.176 480.176" style="enable-background:new 0 0 512 512" xml:space="preserve" class=""><g><path d="M480.093 312.176c.123-22.696-15.805-42.319-38.041-46.866l-24.529-39.361c-12.961-20.835-36.594-33.773-61.672-33.773h-39.649a143.534 143.534 0 0 0-4.7-39.776c14.424-6.849 20.602-24.066 13.825-38.524l-5.984-12.687c-6.07-12.854-20.576-19.397-34.229-15.44a88.164 88.164 0 0 0-34.177-39.935 86.079 86.079 0 0 0-33.719-12.563c-1.173-.2-2.54-.225-3.782-.363-8.286-25.11-35.359-38.749-60.47-30.463s-38.749 35.359-30.463 60.47a47.897 47.897 0 0 0 5.742 11.723 87.758 87.758 0 0 0-12.472 34.7 84.362 84.362 0 0 0-.8 11.735 87.241 87.241 0 0 0 9.675 40.106 29.073 29.073 0 0 0-11.4 32.079c-21.02 3.439-39.728 15.759-50.427 33.963l-25.589 43.023c-2.081.627-4.179 1.2-6.241 1.891-23.646 7.85-36.45 33.383-28.6 57.028a45.115 45.115 0 0 0 13.158 19.78A31.898 31.898 0 0 0 .093 376.177v32a32.06 32.06 0 0 0 10.672 23.875l10.656-11.937a16.028 16.028 0 0 1-5.328-11.938v-32c.012-8.832 7.168-15.988 16-16h416c8.832.012 15.988 7.168 16 16v32c-.012 8.832-7.168 15.988-16 16h-288v16h288c17.666-.018 31.982-14.334 32-32v-32a31.892 31.892 0 0 0-16.359-27.746 48.201 48.201 0 0 0 16.359-36.255zm-76.148-77.766 19.075 30.615-84.081 7.289-30.046-22.538a7.976 7.976 0 0 0-4.8-1.6h-3.625a85.144 85.144 0 0 0 13.563-32.509c.459-2.414.844-4.926 1.164-7.492h40.656c19.594.001 38.023 10.048 48.094 26.235zm-99.086-126.422 6 12.727a12.96 12.96 0 0 1-4.351 16.118c-.564-1.454-1-3-1.61-4.407l-13.416-31.75a12.927 12.927 0 0 1 13.377 7.312zm-34.125-15.32 19.453 46.047a107.99 107.99 0 0 1 4.273 11.7 128.36 128.36 0 0 1 5.492 49.2 111.056 111.056 0 0 1-1.648 13.117 69.515 69.515 0 0 1-13.511 30.061 47.555 47.555 0 0 1-5.082 5.394l-71.095.7a128.446 128.446 0 0 1-40.123-39.422 114.591 114.591 0 0 1-6.25-10.633l-23.062-44.289a71.408 71.408 0 0 1-8.176-33.017l5.793 2.088 5.422-15.047-9.381-3.382a71.882 71.882 0 0 1 4.822-14.35l18 12 8.876-13.312-18.719-12.478a71.987 71.987 0 0 1 19.913-18.077l11.284 24 14.484-6.813-11.289-24.011a70.907 70.907 0 0 1 25.6-3.8l-5.474 21.894 15.516 3.876 5.911-23.647a70.388 70.388 0 0 1 15.065 5.743l-3.414 9.482 15.047 5.422 2.073-5.757a72.239 72.239 0 0 1 20.2 27.311zm-138.635 82.908 15.963 30.659c.77 1.457 1.5 2.782 2.205 4.046a12.863 12.863 0 0 1-15.088-7.038l-5.992-12.6a13.141 13.141 0 0 1 2.912-15.067zm35.994-159.4a31.97 31.97 0 0 1 27.871 16.437 87.986 87.986 0 0 0-57.271 27.943c-6.959-16.113.461-34.817 16.574-41.776a31.78 31.78 0 0 1 12.826-2.604zm-91.5 219.172c8.985-15.3 25.314-25.214 43.371-26.836l.731 1.539c6.706 14.46 23.864 20.747 38.325 14.041l.221-.104.051-.023a144.875 144.875 0 0 0 25.452 27.305L78.968 261.848c-6.679.666-13.321 1.718-19.922 2.994zm-40.539 51.937a205.816 205.816 0 0 1 44.508-9.515l135.531-13.594h85.336l14.414 10.812-92.883 13.258a7.999 7.999 0 0 0-1.633.414L70.663 344.168H45.281c-16.121 0-29.19-13.07-29.189-29.191a29.191 29.191 0 0 1 19.962-27.692zm396.839 56.891h-16.449l-183.651-16.289a7.575 7.575 0 0 0-3.281.4l-46.739 15.889h-65.847l109.136-40.211 103.596-14.789 101.635-9h1.516c1.125-.004 2.25.061 3.367.195 15.917 1.75 27.917 15.422 27.917 31.805 0 17.648-14 32-31.2 32z" fill="#daba4e" data-original="#000000" class=""></path><path d="m165.398 179.395 10.031 12.469a70.127 70.127 0 0 1 29.75-13.993l-3.2-15.672a86.201 86.201 0 0 0-36.581 17.196zM244.64 204.809a45.463 45.463 0 0 1-18.156 4.32l-1.313.031.375 16 1.305-.031a61.666 61.666 0 0 0 37.9-14.32l-10.265-12.266a45.35 45.35 0 0 1-9.846 6.266zM199.124 156.59l4.531-15.344c-22.609-6.664-45.343 4.063-54.054 25.532l14.828 6.015c5.641-13.906 19.891-20.555 34.695-16.203zM219.393 133.848l14.7 6.3c6.07-14.164 20.281-20.883 34.617-16.383l4.813-15.25c-22.086-6.995-44.852 3.669-54.13 25.333zM209.888 152.595l14.486-6.819 20.885 44.369-14.486 6.818zM247.038 159.27a70.19 70.19 0 0 1 29.755-13.994l-3.219-15.672a86.21 86.21 0 0 0-36.57 17.195zM140.482 408.952a25.483 25.483 0 0 0-16.09-11.412 36.601 36.601 0 0 0-11.982-.753 23.423 23.423 0 0 0-.318-1.546 24.649 24.649 0 0 0-11.784-15.532c-11.861-6.869-27.328-3.321-34.469 7.913a32.453 32.453 0 0 0-4.246 10.124 25.625 25.625 0 0 0-20.392 5.357l-.252.2a23.522 23.522 0 0 0-8.792 16.63 23.257 23.257 0 0 0 6.151 17.553l.85.932a33.979 33.979 0 0 0 8.347 6.63 23.5 23.5 0 0 0-.341 20.241c5.865 12.298 20.205 18.013 32.922 13.121a34.83 34.83 0 0 0 9.962-5.915 26.088 26.088 0 0 0 20.317 7.617 24.971 24.971 0 0 0 17.494-8.767 23.625 23.625 0 0 0 5.534-17.669 33.119 33.119 0 0 0-2.928-10.731 23.857 23.857 0 0 0 12.982-15.969 23.593 23.593 0 0 0-2.965-18.024zm-19.689 4.179a9.587 9.587 0 0 1 6.087 4.243 7.698 7.698 0 0 1 1.009 5.877c-.866 3.62-4.411 6.127-8.472 6.233a36.349 36.349 0 0 0-20.2-7.063c3.699-7.299 12.603-11.366 21.576-9.29zm-41.45-16.927c2.556-4.02 8.485-5.232 12.946-2.649a8.796 8.796 0 0 1 4.261 5.487 7.467 7.467 0 0 1 .061 3.279 33.132 33.132 0 0 0-13.14 16.211 17.932 17.932 0 0 1-6.214-9.656 16.237 16.237 0 0 1 2.086-12.672zm-31.23 24.916a7.676 7.676 0 0 1 2.925-5.4l.253-.2a9.755 9.755 0 0 1 11.017-.747 33.917 33.917 0 0 0 11.941 16.877 19.751 19.751 0 0 1-23.282-4.022l-.851-.931a7.412 7.412 0 0 1-2.003-5.577zm26.173 42.383c-4.784 1.859-10.526-.339-12.543-4.8a7.572 7.572 0 0 1 2.069-9.03 35.7 35.7 0 0 0 21.334-5.887 16.186 16.186 0 0 1-.733 10.007 17.597 17.597 0 0 1-10.127 9.71zm41.355-2.488a9.1 9.1 0 0 1-6.4 3.136 9.877 9.877 0 0 1-9.586-5.446 32.036 32.036 0 0 0 .65-20.166c8.962 1.074 16.312 7.924 17.161 16.681a7.749 7.749 0 0 1-1.825 5.795z" fill="#daba4e" data-original="#000000" class=""></path></g></svg>